<mxfile host="app.diagrams.net" modified="2020-09-10T01:53:03.901Z" agent="5.0 (X11; Linux x86_64) AppleWebKit/537.36 (KHTML, like Gecko) Chrome/85.0.4183.83 Safari/537.36" etag="-fpIUz2qRiddMoJ8xINa" version="13.6.9" type="github">
  <diagram id="kgpKYQtTHZ0yAKxKKP6v" name="Page-1">
    <mxGraphModel dx="1633" dy="1533" grid="1" gridSize="10" guides="1" tooltips="1" connect="1" arrows="1" fold="1" page="1" pageScale="1" pageWidth="850" pageHeight="1100" math="0" shadow="0">
      <root>
        <mxCell id="0" />
        <mxCell id="1" parent="0" />
        <mxCell id="3nuBFxr9cyL0pnOWT2aG-1" value="Boleta" style="shape=umlLifeline;perimeter=lifelinePerimeter;container=1;collapsible=0;recursiveResize=0;rounded=0;shadow=0;strokeWidth=1;" parent="1" vertex="1">
          <mxGeometry x="100" y="260" width="130" height="300" as="geometry" />
        </mxCell>
        <mxCell id="3nuBFxr9cyL0pnOWT2aG-2" value="" style="points=[];perimeter=orthogonalPerimeter;rounded=0;shadow=0;strokeWidth=1;" parent="3nuBFxr9cyL0pnOWT2aG-1" vertex="1">
          <mxGeometry x="60" y="70" width="10" height="190" as="geometry" />
        </mxCell>
        <mxCell id="3nuBFxr9cyL0pnOWT2aG-5" value="Base de Datos" style="shape=umlLifeline;perimeter=lifelinePerimeter;container=1;collapsible=0;recursiveResize=0;rounded=0;shadow=0;strokeWidth=1;" parent="1" vertex="1">
          <mxGeometry x="330" y="260" width="100" height="300" as="geometry" />
        </mxCell>
        <mxCell id="3nuBFxr9cyL0pnOWT2aG-6" value="" style="points=[];perimeter=orthogonalPerimeter;rounded=0;shadow=0;strokeWidth=1;" parent="3nuBFxr9cyL0pnOWT2aG-5" vertex="1">
          <mxGeometry x="45" y="80" width="10" height="160" as="geometry" />
        </mxCell>
        <mxCell id="3nuBFxr9cyL0pnOWT2aG-8" value="2 busca producto" style="verticalAlign=bottom;endArrow=block;shadow=0;strokeWidth=1;" parent="1" target="3nuBFxr9cyL0pnOWT2aG-5" edge="1">
          <mxGeometry relative="1" as="geometry">
            <mxPoint x="171" y="383" as="sourcePoint" />
          </mxGeometry>
        </mxCell>
        <mxCell id="bVhWr8Tj8aRsI57dUlMa-1" value="Cajero" style="shape=umlActor;verticalLabelPosition=bottom;verticalAlign=top;html=1;" vertex="1" parent="1">
          <mxGeometry x="-30" y="260" width="30" height="60" as="geometry" />
        </mxCell>
        <mxCell id="bVhWr8Tj8aRsI57dUlMa-2" value="Analista Comercial" style="shape=umlLifeline;perimeter=lifelinePerimeter;container=1;collapsible=0;recursiveResize=0;rounded=0;shadow=0;strokeWidth=1;" vertex="1" parent="1">
          <mxGeometry x="540" y="260" width="120" height="300" as="geometry" />
        </mxCell>
        <mxCell id="bVhWr8Tj8aRsI57dUlMa-3" value="" style="points=[];perimeter=orthogonalPerimeter;rounded=0;shadow=0;strokeWidth=1;" vertex="1" parent="bVhWr8Tj8aRsI57dUlMa-2">
          <mxGeometry x="55" y="80" width="10" height="160" as="geometry" />
        </mxCell>
        <mxCell id="bVhWr8Tj8aRsI57dUlMa-7" value="" style="html=1;points=[];perimeter=orthogonalPerimeter;" vertex="1" parent="1">
          <mxGeometry x="-20" y="355" width="10" height="140" as="geometry" />
        </mxCell>
        <mxCell id="3nuBFxr9cyL0pnOWT2aG-3" value="1 crear boleta" style="verticalAlign=bottom;startArrow=oval;endArrow=block;startSize=8;shadow=0;strokeWidth=1;" parent="1" target="3nuBFxr9cyL0pnOWT2aG-2" edge="1" source="bVhWr8Tj8aRsI57dUlMa-7">
          <mxGeometry relative="1" as="geometry">
            <mxPoint x="10" y="340" as="sourcePoint" />
            <Array as="points">
              <mxPoint x="80" y="370" />
            </Array>
          </mxGeometry>
        </mxCell>
        <mxCell id="bVhWr8Tj8aRsI57dUlMa-9" value="Minimarket deToDo" style="text;html=1;strokeColor=none;fillColor=none;align=center;verticalAlign=middle;whiteSpace=wrap;rounded=0;fontStyle=1;fontSize=16;" vertex="1" parent="1">
          <mxGeometry y="-500" width="190" height="20" as="geometry" />
        </mxCell>
        <mxCell id="bVhWr8Tj8aRsI57dUlMa-10" value="Sistema de gestiÃ³n del proceso de venta" style="text;html=1;strokeColor=none;fillColor=none;align=center;verticalAlign=middle;whiteSpace=wrap;rounded=0;" vertex="1" parent="1">
          <mxGeometry x="-25" y="-470" width="240" height="20" as="geometry" />
        </mxCell>
        <mxCell id="bVhWr8Tj8aRsI57dUlMa-11" value="Cajero" style="shape=umlActor;verticalLabelPosition=bottom;verticalAlign=top;html=1;fontSize=16;" vertex="1" parent="1">
          <mxGeometry x="400" y="-250" width="30" height="60" as="geometry" />
        </mxCell>
        <mxCell id="bVhWr8Tj8aRsI57dUlMa-68" style="edgeStyle=orthogonalEdgeStyle;rounded=0;orthogonalLoop=1;jettySize=auto;html=1;fontSize=16;" edge="1" parent="1" source="bVhWr8Tj8aRsI57dUlMa-12" target="bVhWr8Tj8aRsI57dUlMa-11">
          <mxGeometry relative="1" as="geometry" />
        </mxCell>
        <mxCell id="bVhWr8Tj8aRsI57dUlMa-12" value="Cliente" style="shape=umlActor;verticalLabelPosition=bottom;verticalAlign=top;html=1;fontSize=16;" vertex="1" parent="1">
          <mxGeometry x="530" y="-250" width="30" height="60" as="geometry" />
        </mxCell>
        <mxCell id="bVhWr8Tj8aRsI57dUlMa-13" value="Hacer boleta" style="ellipse;whiteSpace=wrap;html=1;fontSize=16;" vertex="1" parent="1">
          <mxGeometry x="40" y="-310" width="140" height="70" as="geometry" />
        </mxCell>
        <mxCell id="bVhWr8Tj8aRsI57dUlMa-15" value="Actualizar stock" style="ellipse;whiteSpace=wrap;html=1;fontSize=16;" vertex="1" parent="1">
          <mxGeometry x="-170" y="-265" width="140" height="70" as="geometry" />
        </mxCell>
        <mxCell id="bVhWr8Tj8aRsI57dUlMa-16" value="" style="endArrow=none;html=1;fontSize=16;" edge="1" parent="1" source="bVhWr8Tj8aRsI57dUlMa-15" target="bVhWr8Tj8aRsI57dUlMa-13">
          <mxGeometry width="50" height="50" relative="1" as="geometry">
            <mxPoint x="150" as="sourcePoint" />
            <mxPoint x="140" y="-150" as="targetPoint" />
          </mxGeometry>
        </mxCell>
        <mxCell id="bVhWr8Tj8aRsI57dUlMa-17" value="Consultar precio" style="ellipse;whiteSpace=wrap;html=1;fontSize=16;" vertex="1" parent="1">
          <mxGeometry x="40" y="-120" width="140" height="70" as="geometry" />
        </mxCell>
        <mxCell id="bVhWr8Tj8aRsI57dUlMa-18" value="" style="endArrow=none;html=1;fontSize=16;" edge="1" parent="1" source="bVhWr8Tj8aRsI57dUlMa-13" target="bVhWr8Tj8aRsI57dUlMa-11">
          <mxGeometry width="50" height="50" relative="1" as="geometry">
            <mxPoint x="205" y="-205" as="sourcePoint" />
            <mxPoint x="255" y="-255" as="targetPoint" />
          </mxGeometry>
        </mxCell>
        <mxCell id="bVhWr8Tj8aRsI57dUlMa-19" value="Anular boleta" style="ellipse;whiteSpace=wrap;html=1;fontSize=16;" vertex="1" parent="1">
          <mxGeometry x="40" y="-210" width="140" height="70" as="geometry" />
        </mxCell>
        <mxCell id="bVhWr8Tj8aRsI57dUlMa-20" value="" style="endArrow=none;html=1;fontSize=16;exitX=0.989;exitY=0.396;exitDx=0;exitDy=0;exitPerimeter=0;" edge="1" parent="1" source="bVhWr8Tj8aRsI57dUlMa-17" target="bVhWr8Tj8aRsI57dUlMa-11">
          <mxGeometry width="50" height="50" relative="1" as="geometry">
            <mxPoint x="110" y="-90" as="sourcePoint" />
            <mxPoint x="160" y="-140" as="targetPoint" />
          </mxGeometry>
        </mxCell>
        <mxCell id="bVhWr8Tj8aRsI57dUlMa-21" value="" style="endArrow=none;html=1;fontSize=16;" edge="1" parent="1" source="bVhWr8Tj8aRsI57dUlMa-19" target="bVhWr8Tj8aRsI57dUlMa-11">
          <mxGeometry width="50" height="50" relative="1" as="geometry">
            <mxPoint x="110" y="-90" as="sourcePoint" />
            <mxPoint x="160" y="-140" as="targetPoint" />
          </mxGeometry>
        </mxCell>
        <mxCell id="bVhWr8Tj8aRsI57dUlMa-22" value="" style="endArrow=none;html=1;fontSize=16;" edge="1" parent="1" source="bVhWr8Tj8aRsI57dUlMa-15" target="bVhWr8Tj8aRsI57dUlMa-19">
          <mxGeometry width="50" height="50" relative="1" as="geometry">
            <mxPoint x="90" y="-140" as="sourcePoint" />
            <mxPoint x="140" y="-190" as="targetPoint" />
          </mxGeometry>
        </mxCell>
        <mxCell id="bVhWr8Tj8aRsI57dUlMa-23" value="Cuadratura&lt;br&gt;de caja" style="ellipse;whiteSpace=wrap;html=1;fontSize=16;" vertex="1" parent="1">
          <mxGeometry x="40" y="-20" width="140" height="70" as="geometry" />
        </mxCell>
        <mxCell id="bVhWr8Tj8aRsI57dUlMa-24" value="" style="endArrow=none;html=1;fontSize=16;exitX=1;exitY=0.5;exitDx=0;exitDy=0;" edge="1" parent="1" source="bVhWr8Tj8aRsI57dUlMa-23" target="bVhWr8Tj8aRsI57dUlMa-11">
          <mxGeometry width="50" height="50" relative="1" as="geometry">
            <mxPoint x="260" y="-60" as="sourcePoint" />
            <mxPoint x="310" y="-110" as="targetPoint" />
          </mxGeometry>
        </mxCell>
        <mxCell id="bVhWr8Tj8aRsI57dUlMa-34" value="" style="endArrow=block;endSize=16;endFill=0;html=1;fontSize=16;entryX=0.499;entryY=1.011;entryDx=0;entryDy=0;entryPerimeter=0;exitX=0.5;exitY=0;exitDx=0;exitDy=0;" edge="1" parent="1" source="bVhWr8Tj8aRsI57dUlMa-29" target="bVhWr8Tj8aRsI57dUlMa-28">
          <mxGeometry width="160" relative="1" as="geometry">
            <mxPoint x="-140" y="840" as="sourcePoint" />
            <mxPoint x="20" y="840" as="targetPoint" />
          </mxGeometry>
        </mxCell>
        <mxCell id="bVhWr8Tj8aRsI57dUlMa-39" value="" style="endArrow=block;endSize=16;endFill=0;html=1;fontSize=16;exitX=0.586;exitY=-0.023;exitDx=0;exitDy=0;exitPerimeter=0;" edge="1" parent="1" source="bVhWr8Tj8aRsI57dUlMa-35" target="bVhWr8Tj8aRsI57dUlMa-28">
          <mxGeometry width="160" relative="1" as="geometry">
            <mxPoint x="-150" y="860" as="sourcePoint" />
            <mxPoint y="770" as="targetPoint" />
          </mxGeometry>
        </mxCell>
        <mxCell id="bVhWr8Tj8aRsI57dUlMa-29" value="Cliente" style="swimlane;fontStyle=1;align=center;verticalAlign=top;childLayout=stackLayout;horizontal=1;startSize=26;horizontalStack=0;resizeParent=1;resizeParentMax=0;resizeLast=0;collapsible=1;marginBottom=0;fontSize=16;" vertex="1" parent="1">
          <mxGeometry x="-190" y="800" width="160" height="86" as="geometry" />
        </mxCell>
        <mxCell id="bVhWr8Tj8aRsI57dUlMa-30" value="+ field: type" style="text;strokeColor=none;fillColor=none;align=left;verticalAlign=top;spacingLeft=4;spacingRight=4;overflow=hidden;rotatable=0;points=[[0,0.5],[1,0.5]];portConstraint=eastwest;" vertex="1" parent="bVhWr8Tj8aRsI57dUlMa-29">
          <mxGeometry y="26" width="160" height="26" as="geometry" />
        </mxCell>
        <mxCell id="bVhWr8Tj8aRsI57dUlMa-31" value="" style="line;strokeWidth=1;fillColor=none;align=left;verticalAlign=middle;spacingTop=-1;spacingLeft=3;spacingRight=3;rotatable=0;labelPosition=right;points=[];portConstraint=eastwest;" vertex="1" parent="bVhWr8Tj8aRsI57dUlMa-29">
          <mxGeometry y="52" width="160" height="8" as="geometry" />
        </mxCell>
        <mxCell id="bVhWr8Tj8aRsI57dUlMa-32" value="+ method(type): type" style="text;strokeColor=none;fillColor=none;align=left;verticalAlign=top;spacingLeft=4;spacingRight=4;overflow=hidden;rotatable=0;points=[[0,0.5],[1,0.5]];portConstraint=eastwest;" vertex="1" parent="bVhWr8Tj8aRsI57dUlMa-29">
          <mxGeometry y="60" width="160" height="26" as="geometry" />
        </mxCell>
        <mxCell id="bVhWr8Tj8aRsI57dUlMa-35" value="Cajero" style="swimlane;fontStyle=1;align=center;verticalAlign=top;childLayout=stackLayout;horizontal=1;startSize=26;horizontalStack=0;resizeParent=1;resizeParentMax=0;resizeLast=0;collapsible=1;marginBottom=0;fontSize=16;" vertex="1" parent="1">
          <mxGeometry x="60" y="800" width="160" height="86" as="geometry" />
        </mxCell>
        <mxCell id="bVhWr8Tj8aRsI57dUlMa-36" value="+ field: type" style="text;strokeColor=none;fillColor=none;align=left;verticalAlign=top;spacingLeft=4;spacingRight=4;overflow=hidden;rotatable=0;points=[[0,0.5],[1,0.5]];portConstraint=eastwest;" vertex="1" parent="bVhWr8Tj8aRsI57dUlMa-35">
          <mxGeometry y="26" width="160" height="26" as="geometry" />
        </mxCell>
        <mxCell id="bVhWr8Tj8aRsI57dUlMa-37" value="" style="line;strokeWidth=1;fillColor=none;align=left;verticalAlign=middle;spacingTop=-1;spacingLeft=3;spacingRight=3;rotatable=0;labelPosition=right;points=[];portConstraint=eastwest;" vertex="1" parent="bVhWr8Tj8aRsI57dUlMa-35">
          <mxGeometry y="52" width="160" height="8" as="geometry" />
        </mxCell>
        <mxCell id="bVhWr8Tj8aRsI57dUlMa-38" value="+ method(type): type" style="text;strokeColor=none;fillColor=none;align=left;verticalAlign=top;spacingLeft=4;spacingRight=4;overflow=hidden;rotatable=0;points=[[0,0.5],[1,0.5]];portConstraint=eastwest;" vertex="1" parent="bVhWr8Tj8aRsI57dUlMa-35">
          <mxGeometry y="60" width="160" height="26" as="geometry" />
        </mxCell>
        <mxCell id="bVhWr8Tj8aRsI57dUlMa-25" value="Persona" style="swimlane;fontStyle=1;align=center;verticalAlign=top;childLayout=stackLayout;horizontal=1;startSize=26;horizontalStack=0;resizeParent=1;resizeParentMax=0;resizeLast=0;collapsible=1;marginBottom=0;fontSize=16;" vertex="1" parent="1">
          <mxGeometry x="-70" y="620" width="160" height="86" as="geometry" />
        </mxCell>
        <mxCell id="bVhWr8Tj8aRsI57dUlMa-26" value="+ field: type" style="text;strokeColor=none;fillColor=none;align=left;verticalAlign=top;spacingLeft=4;spacingRight=4;overflow=hidden;rotatable=0;points=[[0,0.5],[1,0.5]];portConstraint=eastwest;" vertex="1" parent="bVhWr8Tj8aRsI57dUlMa-25">
          <mxGeometry y="26" width="160" height="26" as="geometry" />
        </mxCell>
        <mxCell id="bVhWr8Tj8aRsI57dUlMa-27" value="" style="line;strokeWidth=1;fillColor=none;align=left;verticalAlign=middle;spacingTop=-1;spacingLeft=3;spacingRight=3;rotatable=0;labelPosition=right;points=[];portConstraint=eastwest;" vertex="1" parent="bVhWr8Tj8aRsI57dUlMa-25">
          <mxGeometry y="52" width="160" height="8" as="geometry" />
        </mxCell>
        <mxCell id="bVhWr8Tj8aRsI57dUlMa-28" value="+ method(type): type" style="text;strokeColor=none;fillColor=none;align=left;verticalAlign=top;spacingLeft=4;spacingRight=4;overflow=hidden;rotatable=0;points=[[0,0.5],[1,0.5]];portConstraint=eastwest;" vertex="1" parent="bVhWr8Tj8aRsI57dUlMa-25">
          <mxGeometry y="60" width="160" height="26" as="geometry" />
        </mxCell>
        <mxCell id="bVhWr8Tj8aRsI57dUlMa-52" value="Puntos" style="swimlane;fontStyle=1;align=center;verticalAlign=top;childLayout=stackLayout;horizontal=1;startSize=26;horizontalStack=0;resizeParent=1;resizeParentMax=0;resizeLast=0;collapsible=1;marginBottom=0;fontSize=16;" vertex="1" parent="1">
          <mxGeometry x="-440" y="800" width="160" height="86" as="geometry" />
        </mxCell>
        <mxCell id="bVhWr8Tj8aRsI57dUlMa-53" value="+ field: type" style="text;strokeColor=none;fillColor=none;align=left;verticalAlign=top;spacingLeft=4;spacingRight=4;overflow=hidden;rotatable=0;points=[[0,0.5],[1,0.5]];portConstraint=eastwest;" vertex="1" parent="bVhWr8Tj8aRsI57dUlMa-52">
          <mxGeometry y="26" width="160" height="26" as="geometry" />
        </mxCell>
        <mxCell id="bVhWr8Tj8aRsI57dUlMa-54" value="" style="line;strokeWidth=1;fillColor=none;align=left;verticalAlign=middle;spacingTop=-1;spacingLeft=3;spacingRight=3;rotatable=0;labelPosition=right;points=[];portConstraint=eastwest;" vertex="1" parent="bVhWr8Tj8aRsI57dUlMa-52">
          <mxGeometry y="52" width="160" height="8" as="geometry" />
        </mxCell>
        <mxCell id="bVhWr8Tj8aRsI57dUlMa-55" value="+ method(type): type" style="text;strokeColor=none;fillColor=none;align=left;verticalAlign=top;spacingLeft=4;spacingRight=4;overflow=hidden;rotatable=0;points=[[0,0.5],[1,0.5]];portConstraint=eastwest;" vertex="1" parent="bVhWr8Tj8aRsI57dUlMa-52">
          <mxGeometry y="60" width="160" height="26" as="geometry" />
        </mxCell>
        <mxCell id="bVhWr8Tj8aRsI57dUlMa-44" value="Boleta" style="swimlane;fontStyle=1;align=center;verticalAlign=top;childLayout=stackLayout;horizontal=1;startSize=26;horizontalStack=0;resizeParent=1;resizeParentMax=0;resizeLast=0;collapsible=1;marginBottom=0;fontSize=16;" vertex="1" parent="1">
          <mxGeometry x="-80" y="970" width="160" height="86" as="geometry" />
        </mxCell>
        <mxCell id="bVhWr8Tj8aRsI57dUlMa-45" value="+ field: type" style="text;strokeColor=none;fillColor=none;align=left;verticalAlign=top;spacingLeft=4;spacingRight=4;overflow=hidden;rotatable=0;points=[[0,0.5],[1,0.5]];portConstraint=eastwest;" vertex="1" parent="bVhWr8Tj8aRsI57dUlMa-44">
          <mxGeometry y="26" width="160" height="26" as="geometry" />
        </mxCell>
        <mxCell id="bVhWr8Tj8aRsI57dUlMa-46" value="" style="line;strokeWidth=1;fillColor=none;align=left;verticalAlign=middle;spacingTop=-1;spacingLeft=3;spacingRight=3;rotatable=0;labelPosition=right;points=[];portConstraint=eastwest;" vertex="1" parent="bVhWr8Tj8aRsI57dUlMa-44">
          <mxGeometry y="52" width="160" height="8" as="geometry" />
        </mxCell>
        <mxCell id="bVhWr8Tj8aRsI57dUlMa-47" value="+ method(type): type" style="text;strokeColor=none;fillColor=none;align=left;verticalAlign=top;spacingLeft=4;spacingRight=4;overflow=hidden;rotatable=0;points=[[0,0.5],[1,0.5]];portConstraint=eastwest;" vertex="1" parent="bVhWr8Tj8aRsI57dUlMa-44">
          <mxGeometry y="60" width="160" height="26" as="geometry" />
        </mxCell>
        <mxCell id="bVhWr8Tj8aRsI57dUlMa-48" value="Medio de Pago" style="swimlane;fontStyle=1;align=center;verticalAlign=top;childLayout=stackLayout;horizontal=1;startSize=26;horizontalStack=0;resizeParent=1;resizeParentMax=0;resizeLast=0;collapsible=1;marginBottom=0;fontSize=16;" vertex="1" parent="1">
          <mxGeometry x="-280" y="980" width="160" height="86" as="geometry" />
        </mxCell>
        <mxCell id="bVhWr8Tj8aRsI57dUlMa-49" value="+ field: type" style="text;strokeColor=none;fillColor=none;align=left;verticalAlign=top;spacingLeft=4;spacingRight=4;overflow=hidden;rotatable=0;points=[[0,0.5],[1,0.5]];portConstraint=eastwest;" vertex="1" parent="bVhWr8Tj8aRsI57dUlMa-48">
          <mxGeometry y="26" width="160" height="26" as="geometry" />
        </mxCell>
        <mxCell id="bVhWr8Tj8aRsI57dUlMa-50" value="" style="line;strokeWidth=1;fillColor=none;align=left;verticalAlign=middle;spacingTop=-1;spacingLeft=3;spacingRight=3;rotatable=0;labelPosition=right;points=[];portConstraint=eastwest;" vertex="1" parent="bVhWr8Tj8aRsI57dUlMa-48">
          <mxGeometry y="52" width="160" height="8" as="geometry" />
        </mxCell>
        <mxCell id="bVhWr8Tj8aRsI57dUlMa-51" value="+ method(type): type" style="text;strokeColor=none;fillColor=none;align=left;verticalAlign=top;spacingLeft=4;spacingRight=4;overflow=hidden;rotatable=0;points=[[0,0.5],[1,0.5]];portConstraint=eastwest;" vertex="1" parent="bVhWr8Tj8aRsI57dUlMa-48">
          <mxGeometry y="60" width="160" height="26" as="geometry" />
        </mxCell>
        <mxCell id="bVhWr8Tj8aRsI57dUlMa-40" value="Producto" style="swimlane;fontStyle=1;align=center;verticalAlign=top;childLayout=stackLayout;horizontal=1;startSize=26;horizontalStack=0;resizeParent=1;resizeParentMax=0;resizeLast=0;collapsible=1;marginBottom=0;fontSize=16;" vertex="1" parent="1">
          <mxGeometry x="120" y="970" width="160" height="86" as="geometry" />
        </mxCell>
        <mxCell id="bVhWr8Tj8aRsI57dUlMa-41" value="+ field: type" style="text;strokeColor=none;fillColor=none;align=left;verticalAlign=top;spacingLeft=4;spacingRight=4;overflow=hidden;rotatable=0;points=[[0,0.5],[1,0.5]];portConstraint=eastwest;" vertex="1" parent="bVhWr8Tj8aRsI57dUlMa-40">
          <mxGeometry y="26" width="160" height="26" as="geometry" />
        </mxCell>
        <mxCell id="bVhWr8Tj8aRsI57dUlMa-42" value="" style="line;strokeWidth=1;fillColor=none;align=left;verticalAlign=middle;spacingTop=-1;spacingLeft=3;spacingRight=3;rotatable=0;labelPosition=right;points=[];portConstraint=eastwest;" vertex="1" parent="bVhWr8Tj8aRsI57dUlMa-40">
          <mxGeometry y="52" width="160" height="8" as="geometry" />
        </mxCell>
        <mxCell id="bVhWr8Tj8aRsI57dUlMa-43" value="+ method(type): type" style="text;strokeColor=none;fillColor=none;align=left;verticalAlign=top;spacingLeft=4;spacingRight=4;overflow=hidden;rotatable=0;points=[[0,0.5],[1,0.5]];portConstraint=eastwest;" vertex="1" parent="bVhWr8Tj8aRsI57dUlMa-40">
          <mxGeometry y="60" width="160" height="26" as="geometry" />
        </mxCell>
        <mxCell id="bVhWr8Tj8aRsI57dUlMa-61" value="3 retorna producto" style="verticalAlign=bottom;endArrow=block;shadow=0;strokeWidth=1;exitX=0;exitY=0.438;exitDx=0;exitDy=0;exitPerimeter=0;" edge="1" parent="1" source="3nuBFxr9cyL0pnOWT2aG-6" target="3nuBFxr9cyL0pnOWT2aG-1">
          <mxGeometry relative="1" as="geometry">
            <mxPoint x="370" y="438" as="sourcePoint" />
            <mxPoint x="171" y="407" as="targetPoint" />
          </mxGeometry>
        </mxCell>
        <mxCell id="bVhWr8Tj8aRsI57dUlMa-64" value="4 busca cliente" style="verticalAlign=bottom;endArrow=block;shadow=0;strokeWidth=1;exitX=0;exitY=0.438;exitDx=0;exitDy=0;exitPerimeter=0;" edge="1" parent="1">
          <mxGeometry relative="1" as="geometry">
            <mxPoint x="169.92857142857133" y="439.99999999999994" as="sourcePoint" />
            <mxPoint x="380" y="439.99999999999994" as="targetPoint" />
          </mxGeometry>
        </mxCell>
        <mxCell id="bVhWr8Tj8aRsI57dUlMa-65" value="5 retorna cliente" style="verticalAlign=bottom;endArrow=block;shadow=0;strokeWidth=1;" edge="1" parent="1" source="3nuBFxr9cyL0pnOWT2aG-5">
          <mxGeometry relative="1" as="geometry">
            <mxPoint x="340" y="470" as="sourcePoint" />
            <mxPoint x="169.92857142857133" y="470" as="targetPoint" />
          </mxGeometry>
        </mxCell>
        <mxCell id="bVhWr8Tj8aRsI57dUlMa-66" value="Registrar cliente" style="ellipse;whiteSpace=wrap;html=1;fontSize=16;" vertex="1" parent="1">
          <mxGeometry x="190" y="-360" width="140" height="70" as="geometry" />
        </mxCell>
        <mxCell id="bVhWr8Tj8aRsI57dUlMa-67" value="Registrar pago" style="ellipse;whiteSpace=wrap;html=1;fontSize=16;" vertex="1" parent="1">
          <mxGeometry x="190" y="20" width="140" height="70" as="geometry" />
        </mxCell>
        <mxCell id="bVhWr8Tj8aRsI57dUlMa-69" value="" style="endArrow=none;html=1;fontSize=16;" edge="1" parent="1" source="bVhWr8Tj8aRsI57dUlMa-67" target="bVhWr8Tj8aRsI57dUlMa-11">
          <mxGeometry width="50" height="50" relative="1" as="geometry">
            <mxPoint x="190.00000000000114" y="25" as="sourcePoint" />
            <mxPoint x="350" y="-210" as="targetPoint" />
          </mxGeometry>
        </mxCell>
        <mxCell id="bVhWr8Tj8aRsI57dUlMa-70" value="" style="endArrow=none;html=1;fontSize=16;" edge="1" parent="1" source="bVhWr8Tj8aRsI57dUlMa-66" target="bVhWr8Tj8aRsI57dUlMa-11">
          <mxGeometry width="50" height="50" relative="1" as="geometry">
            <mxPoint x="200.00000000000114" y="35" as="sourcePoint" />
            <mxPoint x="370" y="-190.135135135135" as="targetPoint" />
          </mxGeometry>
        </mxCell>
      </root>
    </mxGraphModel>
  </diagram>
</mxfile>
